<svg preserveAspectRatio="none" width="100%" height="100%" overflow="visible" style="display: block;" viewBox="0 0 16.6667 18" fill="none" xmlns="http://www.w3.org/2000/svg">
<g id="zap">
<path id="Vector" d="M6.08543 10.4491H5.77945C4.7903 10.4491 4.29572 10.4491 4.08491 10.1229C3.87409 9.79687 4.07496 9.34253 4.47669 8.43389L5.68445 5.70215C6.04971 4.876 6.23235 4.46292 6.58665 4.23146C6.94095 4 7.3906 4 8.29 4H9.68293C10.7755 4 11.3217 4 11.5277 4.3569C11.7338 4.7138 11.4628 5.19059 10.9207 6.14415L10.2061 7.40125C9.93667 7.8753 9.80193 8.11233 9.8038 8.30635C9.80627 8.5585 9.94033 8.7908 10.1569 8.918C10.3236 9.01593 10.5951 9.01593 11.1383 9.01593C11.8249 9.01593 12.1682 9.01593 12.347 9.1348C12.5793 9.2892 12.7009 9.56547 12.6583 9.84213C12.6255 10.0551 12.3945 10.3104 11.9327 10.8211L8.2426 14.9015C7.5178 15.703 7.1554 16.1037 6.91205 15.9769C6.66869 15.8501 6.78555 15.3215 7.01927 14.2641L7.47713 12.1931C7.65507 11.388 7.74407 10.9855 7.53007 10.7173C7.31607 10.4491 6.90585 10.4491 6.08543 10.4491Z" stroke="var(--stroke-0, white)" stroke-width="1.5" stroke-linejoin="round"/>
</g>
</svg>
