<svg width="20" height="20" viewBox="0 0 20 20" fill="none" xmlns="http://www.w3.org/2000/svg">
<g clip-path="url(#clip0_38292_68835)">
<path d="M15.3125 0H4.6875C2.09867 0 0 2.09867 0 4.6875V15.3125C0 17.9013 2.09867 20 4.6875 20H15.3125C17.9013 20 20 17.9013 20 15.3125V4.6875C20 2.09867 17.9013 0 15.3125 0Z" fill="#F4F2ED"/>
<g clip-path="url(#clip1_38292_68835)">
<path d="M3.11528 9.91286C3.11493 11.1577 3.44274 12.3732 4.06607 13.4446L3.05566 17.1052L6.83107 16.1229C7.8753 16.687 9.04527 16.9825 10.2342 16.9826H10.2373C14.1622 16.9826 17.3572 13.8136 17.3589 9.91843C17.3596 8.03095 16.6195 6.25608 15.2748 4.92077C13.9303 3.58557 12.1422 2.84986 10.237 2.849C6.31168 2.849 3.11696 6.01787 3.11533 9.91286" fill="url(#paint0_linear_38292_68835)"/>
<path d="M2.86076 9.91055C2.86035 11.2002 3.19991 12.4592 3.84547 13.5689L2.79883 17.3607L6.7096 16.3433C7.78715 16.9262 9.00036 17.2336 10.2349 17.234H10.238C14.3038 17.234 17.6135 13.951 17.6152 9.91641C17.6159 7.96111 16.8492 6.12244 15.4564 4.73929C14.0635 3.35631 12.2115 2.59413 10.238 2.59332C6.17164 2.59332 2.86238 5.8759 2.86076 9.91055ZM5.18977 13.3778L5.04374 13.1478C4.4299 12.1794 4.10591 11.0602 4.10637 9.91101C4.10765 6.55751 6.85817 3.82917 10.2404 3.82917C11.8783 3.82986 13.4176 4.4634 14.5753 5.61288C15.733 6.76247 16.3701 8.29063 16.3697 9.91595C16.3682 13.2695 13.6176 15.9981 10.238 15.9981H10.2356C9.13521 15.9976 8.05599 15.7043 7.1148 15.1502L6.89082 15.0184L4.57008 15.6222L5.18977 13.3778Z" fill="url(#paint1_linear_38292_68835)"/>
<path d="M8.39397 6.85147C8.25588 6.54693 8.11055 6.54079 7.97923 6.53544C7.8717 6.53085 7.74877 6.53119 7.62595 6.53119C7.50302 6.53119 7.30329 6.57708 7.13447 6.75999C6.96547 6.94307 6.48926 7.38549 6.48926 8.28533C6.48926 9.18517 7.1498 10.0549 7.24188 10.177C7.33408 10.2989 8.51708 12.2046 10.3907 12.9377C11.9478 13.547 12.2646 13.4258 12.6026 13.3953C12.9406 13.3648 13.6932 12.953 13.8468 12.5259C14.0004 12.0988 14.0004 11.7328 13.9543 11.6563C13.9083 11.5801 13.7853 11.5343 13.601 11.4429C13.4167 11.3515 12.5104 10.9089 12.3414 10.8479C12.1724 10.7869 12.0496 10.7565 11.9266 10.9396C11.8037 11.1224 11.4507 11.5343 11.3431 11.6563C11.2357 11.7786 11.1281 11.7938 10.9438 11.7023C10.7593 11.6105 10.1657 11.4176 9.46139 10.7946C8.91342 10.3098 8.54347 9.71109 8.43594 9.52795C8.3284 9.3451 8.42442 9.24598 8.51685 9.15485C8.59967 9.0729 8.70124 8.94127 8.7935 8.83451C8.8854 8.7277 8.91608 8.65149 8.97754 8.52951C9.03907 8.40742 9.00828 8.30061 8.96226 8.20912C8.91608 8.11764 8.55788 7.21309 8.39397 6.85147Z" fill="white"/>
</g>
</g>
<defs>
<linearGradient id="paint0_linear_38292_68835" x1="718.216" y1="1428.47" x2="718.216" y2="2.849" gradientUnits="userSpaceOnUse">
<stop stop-color="#1FAF38"/>
<stop offset="1" stop-color="#60D669"/>
</linearGradient>
<linearGradient id="paint1_linear_38292_68835" x1="743.619" y1="1479.33" x2="743.619" y2="2.59332" gradientUnits="userSpaceOnUse">
<stop stop-color="#F9F9F9"/>
<stop offset="1" stop-color="white"/>
</linearGradient>
<clipPath id="clip0_38292_68835">
<rect width="20" height="20" fill="white"/>
</clipPath>
<clipPath id="clip1_38292_68835">
<rect width="14.7015" height="14.8164" fill="white" transform="translate(2.79883 2.59332)"/>
</clipPath>
</defs>
</svg>
